<svg width="1441" height="592" xmlns="http://www.w3.org/2000/svg"><g fill="#d2f1ef" fill-rule="nonzero"><path d="M16.943 275.653c15.377 1.532 30.693 3.937 46.152 4.185 12.441.201 24.846-.624 37.25-1.718 20.536-1.822 41.025-4.067 61.401-7.705 17.383-3.102 34.725-6.735 52.319-7.638 31.336-1.605 62.507.893 93.544 6.022 31.15 5.146 62.244 6.467 93.41-.129 20.629-4.366 41.385-6.337 62.193-1.543 53.363 12.288 106.942 10.218 160.623 3.824 17.24-2.054 34.52-3.586 51.81-4.85 28.358-2.08 56.757-.646 85.135-.661 24.691-.01 48.74 4.608 72.13 14.352 16.127 6.719 32.379 12.963 48.713 18.945 23.277 8.52 46.862 14.821 71.27 15.451 17.578.454 35.162.418 52.74.717 23.251.398 46.091 3.84 68.077 13.547 17.146 7.566 34.843 12.598 52.694 17.067 36.69 9.191 71.79 4.459 105.357-16.195 16.334-10.042 32.164-21.22 48.488-31.268 24.253-14.93 48.4-30.186 74.572-39.924 24.979-9.3 50.266-14.543 76.474-9.475 3.235.624 6.455 1.45 9.705 2.023v-13.62c-29.834-7.1-59-5.02-87.923 7.288-21.682 9.227-41.863 21.953-62.075 34.824-20.87 13.3-41.004 28.24-62.296 40.59-16.18 9.377-32.955 16.349-51.017 17.856-25.509 2.136-49.243-5.78-72.165-18.507-10.975-6.094-20.124-15.404-29.67-24.013-8.069-7.271-17.033-10.084-26.953-8.7-3.122.438-6.249.835-9.345 1.45-16.606 3.277-33.223 6.502-49.927 9.041-25.195 3.83-50.344 4.65-75.354-1.693-21.924-5.563-43.144-13.964-63.926-23.997-17.645-8.515-35.517-16.138-54.51-18.888-30.934-4.49-61.977-2.792-92.947-1.332-34.242 1.616-68.277 6.967-102.477 9.708-39.776 3.173-79.396 2.379-118.596-6.56-29.134-6.642-57.97-7.777-87.146-.743-20.273 4.887-40.876 6.002-61.52 3.597-23.117-2.694-46.177-6.11-69.387-7.58-20.952-1.322-41.889-2.488-62.846.071-25.499 3.112-50.627 9.274-76.002 13.418-19.898 3.252-39.77 6.652-59.91 6.885-12.58.144-25.097-.919-37.594-2.225-8.815-.929-17.676-1.501-26.414-3.38v9.991c5.349-.206 10.625.96 15.943 1.492z"/><path d="M82.491 256.622c21.075-3.117 41.745-8.942 62.594-13.534 26.953-5.944 53.943-11.506 81.503-10.226 8.656.402 17.306 1.047 25.951 1.707 22.053 1.677 44.11 3.22 66.142 5.207 22.382 2.012 44.645 1.826 66.836-2.818 18.309-3.828 36.592-8.116 55.343-6.826 15.34 1.048 30.399 4.515 45.447 7.925 36.58 8.297 73.409 11.269 110.597 9.128 23.086-1.331 46.095-3.406 69.058-6.476 23.461-3.131 46.985-5.443 70.544-7.115 19.96-1.408 39.908-1.862 59.806 1.182 23.122 3.529 44.948 12.564 66.523 22.702 14.4 6.77 28.882 13.178 43.96 17.538 32.53 9.427 63.828 5.913 93.765-12.62 5.708-3.53 11.381-7.12 17.09-10.635 20.262-12.45 40.052-26.082 61.246-36.215 11.612-5.552 23.564-9.757 36.087-10.768 10.347-.836 20.386.655 29.057 8.374 5.79 5.144 7.313 11.444 5.04 19.684-1.898 6.862-5.308 12.708-8.79 18.492-3.321 5.52-6.927 10.815-9.765 16.748-7.314 15.283-5.02 28.657 6.865 38.945 9.319 8.065 19.908 12.187 31.212 13.534 18.046 2.146 34.874-3.715 51.171-12.29 20.9-10.99 40.053-25.922 59.812-39.482 21.527-14.777 43.133-29.126 66.671-39.022 26.285-11.057 52.853-15.206 80.398-9.386 4.454.945 8.872 2.178 13.346 2.988v-12.605c-3.934-.883-7.863-1.76-11.798-2.647-18.905-4.272-37.836-5.97-56.833-.862-28.198 7.58-54.993 20.04-81.257 34.312-20.649 11.227-40.135 25.168-60.202 37.743-11.093 6.95-22.69 12.31-35.234 14.085-4.798.676-9.545.46-14.163-1.372-7.478-2.962-10.656-10.19-8.517-19.302 1.044-4.417 2.788-8.452 4.706-12.389 2.854-5.897 5.853-11.707 8.522-17.718 3.81-8.58 3.044-16.985-1.337-24.988-3.39-6.192-7.92-10.995-13.115-14.808-21.862-16.062-45.457-20.257-70.323-14.112-15.721 3.885-30.265 11.965-44.897 19.628-29.86 15.633-59.934 30.58-91.028 42.35-19.81 7.502-39.656 8.22-59.832 2.172-18.303-5.485-36.185-12.626-54.241-19.106-29.402-10.557-59.19-17.945-90.103-15.995-18.314 1.161-36.442 4.628-54.7 6.625-31.988 3.503-63.863 8.802-96.006 10.139-25.107 1.047-50.204 1.14-75.255-2.224-22.865-3.08-45.324-8.942-67.957-13.637-22.336-4.628-44.614-6.032-67.001-.33-16.092 4.097-32.277 8.028-48.75 8.73-32.929 1.388-65.766-1.28-98.592-4.056-17.661-1.49-35.3-3.1-53.039-2.714-25.287.558-49.983 6.022-74.303 13.679-36.406 11.46-73.054 17.661-110.674 12.047-4.675-.696-9.309-2.084-14.071-1.754V254.3c10.445 1.083 20.885 2.342 31.34 3.21 17.07 1.413 34.118 1.63 51.151-.888z"/><path d="M178.29 297.835c40.957-5.068 81.616-5.666 122.45 1.722 33.773 6.105 67.798 7.095 101.792 1.33 23.05-3.918 46.044-3.201 69.105.542 27.298 4.444 54.73 6.775 82.306 4.058 19.404-1.908 38.87-3.192 58.206-5.847 55.918-7.683 111.878-6.105 167.837-1.676 31.12 2.465 61.282 11.75 91.054 22.269 31.644 11.178 63.704 18.263 96.587 20.763 28.888 2.202 57.497 7.028 85.464 16.314 24.845 8.245 50.184 12.132 75.831 14.02 32.539 2.397 64.219-1.207 94.315-17.779 12.816-7.053 25.287-14.86 37.625-23.021 26.49-17.52 53.578-33.36 82.722-43.523 32.277-11.26 64.702-15.122 97.416-5.558v-14.194c-16.534-4.048-33.207-5.466-50.158-3.125-31.983 4.419-61.72 17.505-90.745 33.571-21.945 12.148-42.732 26.971-64.22 40.166-26.66 16.365-54.642 25.77-84.805 24.285-27.956-1.377-55.599-5.584-82.568-14.644-28.697-9.647-57.852-15.225-87.572-17.082-19.435-1.222-38.895-2.273-58.166-5.955-22.155-4.233-43.374-12.916-64.928-20-22.047-7.244-43.863-16-66.703-18.706-40.422-4.785-81.004-5.187-121.566-4.084-28.018.763-55.877 4.749-83.746 7.992-38.839 4.517-77.503 4.347-116.053-3.264-19.728-3.892-39.502-4.944-59.271-1.093-38.093 7.425-76.078 5.806-114.074-.97-36.097-6.434-72.318-7.656-108.534-1.778-29.546 4.8-59.179 7.631-88.971 8.384-19.22.48-38.422.686-57.585-1.691-13.433-1.666-26.886-3.094-40.335-4.63v9.105c7.822.804 15.67 1.392 23.467 2.465 51.228 7.063 102.558 7.981 153.822 1.634z"/><path d="M126.463 351.375c23.704 4.957 47.52 7.33 71.62 5.315 21.543-1.799 43.102-3.51 64.728-1.127 11.623 1.281 23.303 1.835 34.961 2.711 28.58 2.158 56.942-1.937 85.326-4.73 24.526-2.415 48.914-1.103 73.322 1.747 20.283 2.368 40.587 2.86 60.938.912 13.258-1.276 26.547-2.188 39.831-3.003 18.432-1.133 36.885-1.871 55.317-3.07 22.69-1.472 45.35-3.988 68.056-4.737 39.04-1.281 78.094-1.768 117.119 1.61 22.675 1.958 45.133 5.402 67.058 12.696 26.943 8.965 54.061 16.813 81.956 20.042 29.87 3.46 59.282 9.893 88.252 19.227 25.457 8.206 51.264 12.989 77.704 11.871 11.659-.497 23.261-2.091 34.874-3.368 22.093-2.419 43.395-8.498 64.1-18.073 21.359-9.872 41.22-23.256 61.17-36.475 28.502-18.883 58.202-33.661 91.013-37.177 18.612-1.99 37.065-.697 55.178 5.454 7.247 2.46 14.148 5.91 21.014 9.477v-10.374c-23.621-11.723-48.312-15.296-73.785-12.292-20.566 2.424-40.258 9.088-59.39 18.366-20.268 9.826-39.07 23.096-58.29 35.403-23.168 14.84-47.16 27.193-73.12 33.154-16.915 3.88-34.077 4.849-51.224 6.125-25.256 1.876-50.184-.518-74.628-8.16-33.99-10.636-68.313-18.899-103.294-22.943-20.737-2.394-41.236-6.443-61.211-13.532-35.753-12.702-72.304-19.514-109.45-21.913-25.586-1.655-51.229-1.333-76.846-1.63-20.859-.246-41.641 2.01-62.44 3.66-16.78 1.338-33.562 2.665-50.353 3.885-19.044 1.374-38.104 2.46-57.143 3.973-18.956 1.502-37.892 1.548-56.833-.051-18.278-1.543-36.505-4.219-54.865-4.034-17.84.179-35.624 1.886-53.378 3.71-29.412 3.03-58.747 1.918-88-1.88-22.705-2.953-45.339-3.23-68.055-.826-26.62 2.82-53.188 1.871-79.694-2.065-13.31-1.974-26.62-3.978-39.945-5.798-14.693-2.004-29.427-3.572-44.1-5.756-14.621-2.173-29.258-3.978-43.956-5.157v9.058c17.43 1.614 34.797 3.839 52.17 6.238 24.911 3.434 49.608 8.375 74.293 13.537z"/><path d="M53.976 318.586c23.503 2.5 47.026 4.659 70.55 6.839 25.709 2.386 51.454 2.612 77.158.154 26.984-2.586 53.835-3.116 80.81 1.116 36.087 5.661 72.318 6.397 108.616 1.913 21.009-2.592 42.089-3.152 63.185-.607 17.738 2.14 35.516 3.77 53.362 4.124 14.96.293 29.87-.823 44.784-1.939 23.179-1.738 46.357-3.501 69.505-5.815 24.779-2.468 49.557-5.08 74.453-4.875 14.565.124 29.124.715 43.694.931 43.333.638 86.25 5.728 128.118 19.565 28.97 9.58 58.11 17.457 88.076 20.645 27.905 2.967 55.471 8.448 82.584 17.014 19.44 6.14 38.998 11.318 59.163 12.66 18.34 1.213 36.653.72 54.962-.664 15.048-1.136 29.885-3.882 44.383-9.147 23.44-8.515 45.05-21.869 66.352-36.091 27.186-18.14 55.137-34.04 85.804-41.7 27.154-6.793 54.272-7.811 81.23 1.403 3.431 1.172 6.836 2.447 10.235 3.738v-11.739c-11.289-3.949-22.747-6.86-34.586-7.718-29.175-2.113-57.188 4.448-84.568 16.038-24.732 10.463-47.68 25.437-70.55 40.58-31.623 20.922-64.676 35.617-101.35 36.399-31.093.658-62.069.015-92.35-9.584-32.97-10.444-66.378-17.586-100.331-21.098-21.77-2.247-43.447-5.383-64.517-12.71-48.05-16.717-96.753-28.235-147.008-29.078-28.502-.473-56.988-2.483-85.49-.257-35.583 2.777-71.064 7.152-106.642 10.042-26.917 2.175-53.727 1.681-80.48-1.97-25.174-3.429-50.333-4.689-75.533-1.017-35.779 5.219-71.465 3.445-107.074-1.985-21.965-3.348-43.914-5.944-66.09-4.211-20.423 1.604-40.845 3.352-61.293 4.463-25.498 1.388-50.97-.442-76.433-2-15.665-.957-31.335-1.954-46.928-4.242-12.893-1.888-25.796-3.682-38.777-4.525v9.08c2.314.17 4.634.324 6.948.52 15.398 1.27 30.662 4.113 46.028 5.748zM42.112 211.88c20.334-.779 39.64-7.149 58.674-15.2 9.946-4.21 19.83-8.712 30.342-10.574 26.583-4.72 53.12-2.486 79.652.634 19.24 2.26 38.412 5.375 57.718 6.7 38.463 2.641 76.504-1.124 114.16-11.032 16.43-4.322 32.903-8.356 49.772-9.583 23.955-1.749 47.355 2.558 70.564 8.881 41.59 11.332 83.632 17.12 126.302 15.711 41.508-1.372 82.635-6.432 123.263-17.201 21.45-5.684 43.163-7.722 65.128-4.23 24.033 3.822 47.751 9.883 71.69 14.34 22.912 4.26 45.91 6.931 69.053 3.847 36.524-4.88 72.442-12.977 106.44-30.89 13.187-6.943 27.114-10.889 41.498-12.338 25.596-2.584 50.564 1.898 75.24 9.733 19.68 6.251 38.678 15.05 57.959 22.798 25.21 10.135 50.415 11.053 75.892 1.67 11.885-4.373 23.837-8.474 35.8-12.528 19.27-6.53 38.796-9.82 58.838-6.715 10.424 1.614 20.674 4.245 30.903 7.03v-10.785c-4.114-1.042-8.234-2.084-12.343-3.172-19.162-5.07-38.422-7.097-57.944-3.27-16.657 3.265-32.744 9.212-48.861 14.983-19.476 6.979-39.137 10.672-59.467 6.778-13.566-2.6-26.634-7.423-39.635-12.503-30.137-11.76-60.47-22.127-92.422-23.731-19.49-.98-38.58 1.01-57.218 8.355-13.598 5.36-26.625 12.694-40.397 17.388-20.561 7.004-41.585 11.306-62.747 14.534-18.622 2.842-37.29 2.961-55.99.408-22.104-3.018-43.868-8.423-65.617-13.808-28.759-7.118-57.491-8.624-86.368-1.33-15.845 3.997-31.639 8.376-47.592 11.615-23.425 4.756-47.118 6.767-70.837 7.933-23.626 1.16-47.195-.119-70.718-3.048-23.277-2.9-46.172-8.418-68.92-14.721-31.056-8.598-62.196-9.294-93.521-3.198-20.56 4.003-40.798 10.073-61.359 14.148-34.822 6.901-69.72 7.644-104.707 2.677-26.172-3.714-52.282-8.19-78.649-9.439-14.811-.701-29.633-1.037-44.316 2.368-12.656 2.934-24.448 9.124-36.575 14.044-27.52 11.147-55.388 14.118-83.797 5.798v12.755c13.556 3.497 27.252 4.7 41.112 4.168z"/><path d="M38.08 184.927c18.318-.627 35.629-6.739 52.656-14.384 16.648-7.474 33.753-11.555 51.608-10.649 11.417.58 22.793 1.554 34.174 2.766 16.236 1.73 32.405 4.16 48.527 6.972 20.5 3.573 41.04 6.583 61.77 6.857 23.935.321 47.473-4.024 70.924-9.38 26.08-5.961 51.768-14.668 78.454-16.43 14.549-.957 29.067-2.03 43.641-.652 15.578 1.471 30.703 5.93 45.884 9.945 35.537 9.4 71.367 15.445 107.814 15.093 14.564-.14 29.118-1.222 43.62-2.766 13.238-1.409 26.486-2.776 39.58-5.754 18.606-4.232 36.822-10.629 55.48-14.508 18.277-3.797 36.586-5.428 55.09-2.486 17.937 2.854 35.449 8.23 53.12 12.669 22.257 5.588 44.582 10.374 67.457 9.732 11.299-.321 22.515-1.631 33.711-3.532 24.47-4.15 48.584-9.92 71.732-20.9 15.896-7.536 32.178-13.705 49.298-15.523 25.452-2.698 50.58.43 75.486 6.894 20.581 5.34 40.535 13.4 60.788 20.195 19.45 6.532 39.09 9.178 59.162 5.045 13.752-2.833 27.087-7.697 40.433-12.426 30.332-10.742 60.813-13.378 91.721-3.9 3.59 1.098 7.164 2.362 10.79 3.3v-10.732c-4.937-1.347-9.874-2.699-14.816-4.04-19.013-5.16-38.124-6.863-57.528-3.517-15.572 2.683-30.676 7.63-45.817 12.524-13.818 4.47-27.673 8.67-42.057 9.52-17.157 1.015-33.644-3.19-49.978-8.831-32.78-11.312-65.555-22.536-99.996-23.862-16.904-.653-33.572.497-50.014 5.47-14.482 4.381-28.357 11.052-42.556 16.506-22.536 8.66-45.745 13.213-69.238 15.855-17.449 1.963-34.816 1.47-52.178-1.585-20.258-3.569-40.016-9.893-59.909-15.502-17.907-5.05-35.922-8.676-54.415-7.464-17.229 1.13-34.056 5.19-50.775 10.126-16.19 4.78-32.276 10.172-48.877 12.607-14.58 2.134-29.221 3.434-43.878 4.532-17.182 1.284-34.385 1.662-51.572.166-26.197-2.285-51.947-8.143-77.574-14.933-14.446-3.828-28.85-8.002-43.698-9.157-11.31-.88-22.582-.492-33.87.331-19.42 1.42-38.736 3.73-57.81 8.63-25.601 6.572-51.001 14.31-77.065 18.091-23.991 3.486-47.849 2.093-71.67-1.76-13.037-2.109-26.022-4.709-39.05-6.89-18.374-3.071-36.79-5.754-55.253-7.966-13.145-1.574-26.26-2.237-39.414.28-13.336 2.548-26.095 7.552-38.89 12.493-23.996 9.266-48.034 11.063-72.102.492v16.47c12.029 5.004 24.46 6.398 37.08 5.968z"/><path d="M3.895 142.79c15.969 7.548 32.42 9.048 49.269 5.81 8.825-1.696 17.383-4.78 26.069-7.218 19.42-5.455 39.003-9.56 58.978-6.357 32.595 5.228 65.16 10.842 97.554 17.674 36.787 7.754 73.399 8.487 109.913-2.155 34.056-9.925 68.112-19.742 103.279-22.367 20.33-1.515 40.654-3.624 60.86.722 15.32 3.295 30.574 7.136 45.735 11.374 52.375 14.638 104.976 12.452 157.633 3.202 17.275-3.037 33.892-9.987 50.868-14.854 25.421-7.29 50.966-10.528 76.932-4.785 18.057 3.996 35.599 10.539 53.378 15.89 24.387 7.338 49.01 11.58 74.226 9.323 28.95-2.589 57.291-8.967 84.543-21.13 35.758-15.952 72.278-19.411 109.743-11.992 22.47 4.45 44.404 11.534 66.312 18.783 18.51 6.125 37.131 10.56 56.494 7.775 13.768-1.98 27.123-6.213 40.485-10.425 18.365-5.79 36.822-10.93 55.866-12.22 20.165-1.371 39.605 3.49 58.968 9.034v-10.977a741.646 741.646 0 00-4.505-1.315c-22.269-6.404-44.707-9.549-67.618-5.92-18.484 2.93-36.586 7.998-54.483 14.025-28.826 9.703-57.364 10.033-86.174-.31-19.84-7.125-40.016-12.884-60.454-17.2-35.084-7.403-69.665-6.733-103.767 7.379-15.423 6.383-31.073 12.11-47.083 16.148-32.117 8.11-64.316 11.312-96.803 2.913-19.07-4.93-37.579-12.194-56.304-18.613-20.613-7.069-41.513-10.384-62.948-7.811-16.936 2.037-33.424 6.749-49.788 12.173-20.839 6.909-41.652 13.426-63.365 15.643-47.494 4.857-94.551 4.11-141.037-10.554-23.92-7.543-48.245-11.142-73.126-9.044-40.567 3.419-80.645 9.792-119.88 23.377-31.742 10.998-64.141 14.597-96.958 8.446-33.372-6.254-66.713-12.808-99.864-20.588-20.88-4.898-41.677-7.718-62.855-3.975-11.31 2-22.66 3.66-33.922 5.996-20.325 4.208-40.032 2.516-59.015-7.723.01-6.981.016-13.962.026-20.944 1.435-.252 2.71.485 4.027.954 14.806 5.27 29.885 7.873 45.355 7.43 13.942-.402 27.858-1.315 41.78-2.196 15.948-1.011 31.937-2.011 47.623 2.706 34.755 10.451 70.066 17.525 105.186 25.78 34.756 8.167 69.15 7.172 103.279-4.728 13.027-4.542 26.09-8.992 39.265-12.833 21.05-6.13 42.655-8.038 64.065-11.441 35.172-5.594 70.05-5.8 104.739 4.934 18.859 5.832 38.088 9.57 57.64 10.585 25.154 1.305 50.22-.747 75.297-2.438 12.728-.856 25.19-3.548 37.466-7.56 16.004-5.227 31.993-10.522 47.977-15.823 35.43-11.745 70.277-10.198 104.61 6.074 8.877 4.207 18.031 7.554 27.047 11.333 31.13 13.044 62.912 16.112 95.466 9.868 22.536-4.32 44.486-11.42 66.07-20 29.89-11.879 60.105-14.374 91.106-8.507 23.873 4.522 47.288 11.338 70.544 19.005 24.377 8.038 48.76 9.286 73.383 2.207 11-3.161 21.986-6.373 33.007-9.4 24.485-6.728 49.16-10.842 74.355-7.574 10.327 1.34 20.469 3.867 30.636 6.296V91.9c-22.973-5.156-46.08-7.234-69.516-4.068-19.78 2.67-39.188 7.594-58.392 13.565-30.28 9.42-60.191 9.466-90.334-1.176a419.96 419.96 0 00-66.178-17.427c-25.817-4.599-51.222-4.063-76.355 5.667-18.761 7.264-37.749 13.637-56.993 18.906-40.526 11.09-79.791 7.858-117.76-13.39-9.68-5.413-19.595-10.213-29.439-15.2-23.97-12.147-48.682-15.075-74.2-8.852-18.38 4.48-36.216 11.348-54.17 17.705-17.722 6.28-35.419 12.849-54.02 13.994-18.56 1.144-37.142 1.881-55.713 2.773-25.225 1.207-50.168-1.36-74.864-7.826-21.543-5.64-43.282-9.24-65.422-7.456-28.836 2.32-57.4 7.549-86.045 11.905-20.792 3.166-40.66 10.838-60.608 18.113-26.99 9.843-54.432 14.952-82.543 10.013-37.784-6.641-75.204-15.808-111.96-28.275-19.187-6.512-38.401-10.214-58.299-9.6-22.875.706-45.704-.67-68.487-3.058-9.632-1.01-19.213-2.537-28.594-5.501.005-5.161.01-10.322.02-15.478 16.761 1.696 33.527 3.279 50.277 5.114 14.513 1.594 29.026 3.48 43.6 3.197 24.116-.47 47.212 4.66 70.221 13.545 34.514 13.322 69.891 23.031 105.799 29.275 27.375 4.759 53.964-.779 80.074-10.92 17.167-6.672 34.266-13.803 52.153-17.242 14.36-2.763 28.785-5.022 43.19-7.409 15.778-2.614 31.572-5.145 47.36-7.656 24.223-3.847 48.348-2.955 72.427 1.871 23.302 4.666 46.748 4.996 70.256 2.764 17.8-1.691 35.614-2.403 53.465-1.79 17.033.589 33.434-3.918 49.68-9.496 15.002-5.151 29.623-11.632 44.249-18.113 8.26-3.66 16.622-6.914 25.082-9.858 28.547-9.946 55.372-5.569 80.67 13.338 11.535 8.616 22.875 17.628 34.894 25.259 15.341 9.734 31.294 17.272 48.718 19.345 17.399 2.073 34.586-.098 51.691-3.888 20.397-4.521 40.14-11.967 59.75-19.917 23.446-9.502 47.278-9.987 71.418-5.43 23.58 4.45 46.723 11.334 69.686 18.97 27.668 9.203 55.208 8.945 83.015 1.273 20.16-5.558 40.366-10.998 60.948-13.875 23.786-3.325 47.535-3.062 71.249.624v-16.23c-24.953-2.15-53.424-.485-77.539 3.176-21.59 3.274-42.803 9.033-64.11 14.132-24.645 5.898-49.12 6.393-73.584-1.3-18.735-5.893-37.574-11.306-56.34-17.076-33.408-10.276-66.11-9.61-98.552 6.404-23.25 11.477-47.69 17.824-72.956 18.814-20.35.799-39.153-4.81-56.376-18.144-11.566-8.956-21.718-19.927-31.366-31.575C880.96-.865 846.889-7.969 808.63 8.303c-8.161 3.47-16.056 7.687-23.873 12.11-11.103 6.286-22.083 12.922-33.613 18.026-19.605 8.677-39.775 14.632-60.665 10.78-24.223-4.464-48.09-3.242-72.056 1.878-19.908 4.248-39.991 5.527-60.203 4.212-19.686-1.279-39.265.407-58.73 3.95-19.893 3.619-39.76 7.43-59.627 11.26-13.69 2.635-27.53 4.027-41.122 7.455-18.375 4.636-36.067 12.086-53.866 19.046-25.22 9.864-50.873 14.329-77.23 9.054-32.955-6.594-65.376-16.241-96.891-29.456-24.084-10.095-48.42-15.53-73.856-15.019-15.146.304-30.204-1.918-45.232-4.078C36.496 55.345 17.061 54.185 1 53.613V161c0-6.373.015-12.745.026-19.113.956.3 1.96.47 2.87.902zM60.601 235.04c18.766-1.963 36.91-7.54 54.813-14.166 30.631-11.334 61.802-15.779 93.775-13.412 26.702 1.98 53.322 5.329 80.07 6.455 35.78 1.515 71.301.192 106.35-10.026 19.06-5.556 38.392-7.479 57.97-3.908 12.673 2.31 25.34 4.616 37.899 7.68 26.12 6.384 52.339 11.95 79.04 13.2 55.971 2.626 111.468-3.938 166.651-14.135 27.998-5.179 55.662-7.008 83.49.036 14.873 3.763 29.834 7.133 44.589 11.505 47.675 14.136 94.701 12.342 141.635-5.571 23.169-8.843 45.839-19.036 68.308-30.08 26.049-12.813 52.735-14.007 79.88-6.166 25.297 7.308 47.978 21.526 69.285 39.094 11.083 9.137 23.045 13.024 36.314 11.99 12.877-1.002 25.297-4.729 37.666-8.827 17.702-5.861 35.003-13.273 52.488-19.96 27.53-10.534 55.204-11.992 83.264-3.65 2.299.682 4.593 1.437 6.912 2.057v-11.95c-5.307-1.57-10.661-2.909-16.025-4.16-17.414-4.072-34.874-5.085-52.417-1.054-11.124 2.558-22.027 6.15-32.837 10.177-12.004 4.47-23.945 9.158-36.129 12.905-24.29 7.479-48.009 6.745-71.044-6.197-2.73-1.535-5.595-2.713-8.388-4.088-15.938-7.825-31.84-15.753-48.358-21.723-39.796-14.384-78.877-14.513-117.228 7.21-17.48 9.903-36.128 15.655-54.89 20.906-33.038 9.231-66.286 13.846-100.178 9.128-22.979-3.2-45.756-7.892-68.421-13.35-29.644-7.138-59.215-8.931-89.003-1.184-19.538 5.086-39.374 8.011-59.251 10.466-40.799 5.029-81.639 7.587-122.617 3.732-24.732-2.32-49.022-8.063-73.21-14.358-33.315-8.662-66.507-11.36-100.018-1.111-31.619 9.675-63.9 12.275-96.445 11.825-28.687-.393-57.122-4.559-85.67-7.086-24.47-2.16-48.935-3.153-73.194 2.853-13.567 3.36-26.6 9.04-39.796 13.955-25.55 9.525-51.557 13.07-78.167 9.598-5.58-.73-11.144-1.597-16.714-2.393v10.946c1.337.135 2.69.192 4.017.424 18.447 3.225 36.962 4.367 55.584 2.414zM3.762 352.39c33.66 1.502 66.749 7.296 99 19.271 5.281 1.964 10.655 3.661 15.767 6.14 27.669 13.44 56.443 16.206 85.88 13.815 19.554-1.589 39.138-2.165 58.752-1.501 26.414.9 52.72-.396 78.84-5.913 33.727-7.127 67.608-9.019 101.674-3.569 20.607 3.296 41.312 4.438 62.007 1.435 26.974-3.908 54.015-5.851 81.185-5.964 21.353-.088 42.711-.479 64.044-1.41 45.19-1.974 90.334-5.11 135.575-5.146 29.34-.026 58.125 3.867 86.287 14.026 21.22 7.656 42.855 12.906 64.867 16.017 23.698 3.352 47.35 7.11 70.667 13.425 16.658 4.514 33.125 10.108 49.958 13.61 46.476 9.676 91.846 2.565 136.434-14.12 27.725-10.375 53.265-26.566 78.228-44.187 19.995-14.119 40.84-25.93 63.488-32.572 36.952-10.839 72.005-6.828 104.585 16.463v-10.273c-17.918-11.389-37.034-17.533-57.389-18.726-23.842-1.393-46.64 4.196-68.883 14.037-20.71 9.168-39.754 22.335-58.778 35.519-42.598 29.513-88.539 44.892-137.447 48.285-27.843 1.933-55.11-1.84-82.044-10.32-27.34-8.606-54.951-15.62-83.113-19.08-29.417-3.61-58.269-10.55-86.662-20.525-19.944-7.009-40.459-10.577-61.195-11.96-39.548-2.638-79.117-1.517-118.655.267-33.881 1.527-67.732 4.196-101.638 5.008-22.855.55-45.694 1.697-68.441 4.597-21.194 2.705-42.398 2.941-63.54-.15-33.367-4.884-66.667-4.323-99.93 1.08-24.336 3.96-48.74 5.595-73.28 4.16-23.216-1.352-46.451-2.848-69.66-.385-33.064 3.506-65.268-1.162-97.298-11.471C76.409 350.503 38.928 344.385 1 342.57v9.96c.92-.068 1.846-.176 2.762-.14zM1205.829 573.754c-24.52 2.253-48.882 6.546-73.455 8.278-21.96 1.546-43.88 2.773-65.824.046-27.698-3.443-55.356-7.483-83.23-8.597-20.36-.82-40.655.433-60.96 1.866-15.913 1.118-31.821 2.562-47.787 1.814-26.217-1.237-52.445-2.298-78.699-1.69-24.35.562-48.687 2.17-73.058 1.04-14.058-.649-28.028-2.489-42.044-3.695-31.277-2.71-62.462-1.04-93.62 2.69-21.123 2.526-42.291 4.207-63.537 3.439-22.963-.825-45.92-2.263-68.889-2.763-61.639-1.35-123.216-4.623-184.793-8.097-22.722-1.283-45.438-.562-68.123 1.48-20.264 1.813-40.229 6.56-60.415 9.184-18.706 2.432-37.319 1.86-55.89-1.701C55.77 571.348 28.312 557.426 1 543v15.447c29.39 13.586 59.12 25.74 90.633 29.863 4.36.572 8.715.979 13.07 1.247l23.78.03c9.37-.54 18.727-1.705 28.064-3.427 37.941-7.004 76.031-9.865 114.424-7.84 27.596 1.46 55.042 5.372 82.643 6.459 19.451.768 38.902 1.732 58.359 1.922 35.627.356 71.223 2.072 106.824 3.371l25.611.031c10.314-.443 20.618-1.376 30.907-2.49 34.28-3.71 68.606-7.138 102.999-3.581 28.567 2.963 57.135 4.34 85.764 3.298 30.13-1.092 60.26-2.128 90.381-.546 30.172 1.587 60.225-1.01 90.325-2.397 25.23-1.16 50.455-.268 75.578 3.175 8.417 1.155 16.85 2.15 25.282 3.165l115.894.144c1.61-.2 3.224-.402 4.833-.593 14.449-1.7 28.784-4.788 43.36-5.123 11.245-.257 22.218 1.526 32.923 5.685.103.041.2.088.303.13L1267 591c-2.026-1.53-4.386-2.294-6.54-3.51-17.297-9.772-35.365-15.509-54.631-13.736z"/><path d="M1359.12 525.914c-7.045-7.957-14.24-15.734-21.321-23.65-4.423-4.94-8.568-10.2-11.947-16.262-9.859-17.721-7.174-37.718 7.097-50.457 13.911-12.415 29.108-12.656 44.743-5.65 12.82 5.743 23.394 15.697 33.228 26.844 9.714 11.008 17.876 23.705 26.86 35.51 1.09 1.433 2.14 2.922 3.22 4.376v-24.43c-4.053-5.116-7.93-10.443-12.055-15.482-10.522-12.852-21.543-24.933-34.508-34.184-14.457-10.314-29.896-16.124-46.774-12.395-24.403 5.394-41.467 22.088-50.158 50.257-4.87 15.795-2.202 30.06 7.76 42.105a178.149 178.149 0 007.4 8.388c7.987 8.522 16.093 16.894 23.416 26.258 4.14 5.296 8.084 10.803 10.6 17.506 3.491 9.318 1.357 17.295-5.982 22.447-4.099 2.877-8.62 4.145-13.294 4.613-12.605 1.258-24.434-2.363-35.85-8.424-9.788-5.193-18.829-12.082-28.122-18.374-15.053-10.191-31.12-14.32-48.245-12.127-9.478 1.217-18.946 2.758-28.368 4.535-33.546 6.303-67.258 10.72-101.226 10.058-24.984-.483-49.752-5.255-74.659-7.536-25.22-2.311-50.497-2.804-75.61.812-29.571 4.258-59.076 4.494-88.698 1.7-19.168-1.803-38.417-2.753-57.59-1.125-35.604 3.015-70.997.652-106.41-3.565-22.027-2.62-44.131-2.527-66.21-.066-19.624 2.188-39.224 4.658-58.926 5.737-25.385 1.382-50.724-.262-76.073-1.31-15.181-.632-30.378-.827-45.55-2.034-25.045-1.998-49.983-5.732-75.178-5.25-34.405.658-68.821 1.09-103.227.704-35.29-.4-70.112 4.017-104.796 11.378-15.13 3.21-30.455 3.863-45.781 2.029-23.292-2.79-45.103-11.48-65.546-24.98-13.597-8.978-26.907-18.62-40.34-27.974v18.965c6.65 3.087 12.831 7.345 19.162 11.223 19.492 11.948 39.45 22.37 60.927 28.134 20.911 5.609 41.96 6.436 63.206 3.523 18.55-2.542 36.853-7.268 55.476-9.148 19.404-1.952 38.854-2.558 58.325-2.358 43.323.447 86.646 1.634 129.928 3.59 35.506 1.609 71.018 3.108 106.514 5.122 34.174 1.931 68.276 1.536 102.301-3.097 33.701-4.587 67.392-4.613 101.098-.237 29.052 3.77 58.15 3.293 87.284 1.634 23.102-1.315 46.214-.56 69.285 1.032 23.096 1.593 46.126 1.69 69.207-.97 30.929-3.57 61.914-3.96 92.895-.427 21.862 2.497 43.714 5.132 65.607 7.155 16.694 1.541 33.362-.626 50.04-1.725 24.963-1.654 49.66-6.467 74.55-8.948 15.784-1.567 31.084.919 45.684 8.531 13.865 7.228 27.072 16.176 41.081 23.018l68.405.087c3.688-3.113 7.406-6.164 10.28-10.504 6.944-10.49 7.73-20.757 2.207-32.35-4.042-8.471-9.468-15.606-15.341-22.232zM216 589.935l55 .065c-18.325-1.167-36.66-1.466-55-.065z"/><path d="M1392.924 491.092c-1.127-10.086-12.615-22.78-20.887-23.086-5.102-.188-7.564 3.87-5.031 9.318 4.707 10.102 12.165 16.345 21.287 19.405 3.362 1.13 5.101-1.375 4.631-5.637zM1441 535.651c-3.817-.799-7.68-1.275-11.558-1.592-6.508-.533-11.17 2.555-13.861 9.832-6.498 17.601-14.706 33.84-26.581 47.083l21.395.026c6.207-6.345 12.383-12.731 19.104-18.318 3.604-2.996 7.472-5.285 11.496-7.17v-29.86h.005zM1440.825 591.29c-.21.14-.43.27-.65.42h.65v-.42zM0 576v13.948L42 590c-13.555-4.112-26.923-9.012-40.318-13.793C1.15 576.021.57 576.026 0 576zM28.93 376.346c23.411 3.1 46.003 9.5 66.657 23.835 10.584 7.349 20.211 16.33 30.034 24.978 10.805 9.52 22.87 14.304 36.257 14.145 5.02-.062 10.055-.205 15.048-.755 24.007-2.627 47.854-7.236 72.015-8.037 29.87-.995 59.256-6.004 88.128-15.586 33.079-10.983 66.538-13.216 100.327-4.866 21.384 5.292 42.886 6.087 64.388.996 28.378-6.718 56.962-9.095 85.844-7.062 32.616 2.284 65.253 2.69 97.925 1.616 33.166-1.082 66.127-5.81 99.22-8.165 29.305-2.084 57.945.092 85.912 11.42 18.998 7.688 38.535 12.455 58.484 14.847 36.761 4.409 73.27 10.675 109.332 20.606 42.212 11.63 84.378 9.767 126.04-3.639 38.418-12.358 74.51-31.548 108.33-56.84 16.122-12.055 32.847-22.695 51.006-29.757 41.827-16.254 81.097-11.624 117.123 20.078v-10.337c-34.159-27.426-71.403-31.963-111.1-18.532-21.338 7.21-40.804 19.318-59.663 32.99-27.972 20.283-57.342 36.809-88.709 47.966-47.74 16.983-95.893 21.15-144.683 6.708-29.53-8.74-59.41-15.376-89.67-19.323-26.903-3.505-53.455-8.986-79.344-18.748-14.78-5.574-29.957-8.987-45.412-10.578-22.736-2.35-45.452-.251-68.158.683-28.99 1.19-57.908 4.126-86.924 5.302-30.168 1.221-60.29-.088-90.432-.17-20.51-.056-40.957.693-61.225 4.686-25.627 5.05-51.249 5.65-76.906.652-32.148-6.262-64.09-4.604-95.863 3.53-18.565 4.758-37.177 9.183-56.19 10.25-33.871 1.91-67.778 2.705-101.613 5.681-21.733 1.91-42.438-2.925-61.873-15.463-14.955-9.644-30.543-17.701-46.944-23.25-24.608-8.329-49.788-11.84-75.291-12.496v10.86c9.35-.273 18.653.538 27.93 1.775z"/><path d="M36.818 460.589c6.83 9.464 13.418 19.195 20.834 28.037 17.99 21.444 39.332 34.102 64.815 36.094 16.601 1.3 32.791-2.12 48.899-6.218 20.762-5.295 41.498-10.753 62.763-12.196 37.173-2.532 74.068-7.081 110.228-18.573 26.496-8.422 52.9-8.735 78.763 4.015 19.723 9.72 40.423 13.372 61.57 13.002 39.564-.693 79.077-2.675 118.42-8.4 19.692-2.861 39.461-5.536 59.349-4.622 16.57.765 33.063 3.004 49.49 5.684 21.708 3.543 43.437 6.321 65.314 2.865 24.542-3.882 48.796-3.117 72.947 3.924 26.794 7.81 53.753 7.61 80.697.677 32.755-8.431 65.638-7.866 98.522-1.53 27.051 5.207 54.144 7.333 81.417 3.122 19.049-2.942 38.201-5.248 56.32-13.808 13.973-6.598 26.917-15.585 40.016-24.232 26.316-17.382 52.632-34.733 76.485-56.937 8.846-8.232 18.314-15.405 28.44-21.223 32.796-18.846 65.227-20.053 97.056 3.09 11.418 8.304 21.318 18.862 30.837 29.954v-12.31c-3.22-3.588-6.418-7.209-9.761-10.618-20.741-21.157-44.357-33.399-71.96-32.32-19.676.77-37.913 8.093-55.198 19.102-11.9 7.574-22.886 16.894-33.974 26.009-23.857 19.595-50.215 33.568-75.996 48.819-13.875 8.21-27.864 16.242-43.107 20.032-40.547 10.074-81.18 13.74-122.288 4.077-35.223-8.283-70.586-9.202-105.83.955-9.036 2.603-18.319 3.738-27.648 3.867-17.547.23-34.118-5.161-50.097-13.162-20.983-10.5-42.5-12.776-64.635-7.332-18.515 4.544-37.168 5.109-55.883 3.045-45.75-5.063-91.507-5.639-137.325-1.084-27.679 2.753-55.224 6.799-82.774 10.876-23.647 3.497-46.6-.046-68.874-10.172a456.696 456.696 0 00-14.889-6.445c-15.593-6.434-31.582-8.262-47.936-5.797-12.888 1.94-25.463 5.623-37.76 10.511-25.708 10.209-52.225 15.385-79.081 17.629-27.031 2.254-53.656 6.82-79.885 15.025-11.18 3.497-22.551 6.013-34.102 7.143-28.687 2.819-52.58-8.32-71.085-35.227-4.896-7.117-9.139-14.789-13.289-22.532-10.157-18.938-24.516-30.353-42.804-34.682-4.562-1.104-9.206-1.72-13.819-2.532v18.153c1.121.22 2.253.395 3.358.708 13.593 3.877 24.414 13.002 33.46 25.537z"/><path d="M69.12 427.274c5.945 7.577 10.08 16.587 14.127 25.684 13.14 29.53 33.48 42.772 61.174 39.576 11.175-1.294 22.047-4.376 32.893-7.66 20.247-6.123 40.623-11.453 61.508-13.097 33.223-2.618 65.864-8.644 97.42-22.149 14.118-6.046 28.76-9.747 43.746-11.231 19.007-1.892 37.321 2.206 55.187 9.52 26.887 11.01 53.774 12.33 81.046 1.907 15.336-5.855 31.207-7.448 47.288-7.025 42.063 1.103 84.126 1.696 126.184 2.938 31.264.917 62.187-2.392 93.05-8.2 28.768-5.413 56.56-1.79 82.51 15.803 10.945 7.417 23.04 10.133 35.6 9.83 7.796-.186 15.556-.996 23.296-1.996 26.908-3.474 53.67-2.092 80.342 3.083 16.107 3.118 32.163 6.685 48.321 9.319 19.867 3.242 39.811 2.623 59.76.314 24.089-2.783 47.612-7.865 70.004-19.741 26.167-13.866 52.724-26.674 77.245-44.679 12.106-8.891 23.734-18.71 36.165-26.952 18.869-12.515 38.787-21.278 60.397-22.969 27.869-2.185 52.657 8.052 74.602 28.602 3.07 2.877 6.053 5.897 9.015 8.938v-11.34c-4.803-4.572-9.658-9.066-14.888-12.963-20.582-15.319-42.948-22.396-67.037-20.479-24.573 1.954-47.088 12.129-68.348 26.742-17.208 11.83-33.516 25.55-51.398 35.978-27.334 15.947-55.053 31.132-84.645 39.611-38.006 10.897-76.546 12.701-115.035 3.098-38.324-9.556-76.942-15.803-116.094-16.886-17.362-.479-34.282-3.886-50.358-12.025-31.762-16.066-64.77-17.015-98.197-11.572-61.658 10.036-123.48 9.753-185.4 5.279-20.935-1.521-41.892-3.722-62.731 1.319-7.144 1.727-14.364 3.196-21.343 5.65-21.62 7.592-43.138 6.741-64.769.21-11.813-3.566-23.703-6.757-35.902-7.927-22.37-2.16-44.223 1.598-65.4 9.86-31.907 12.449-64.523 19.36-97.946 21.443-22.783 1.423-45.061 7.082-67.35 12.52-8.625 2.108-17.3 3.716-26.115 4.273-17.836 1.129-31.752-6.799-41.554-25.117-6.573-12.289-14.226-23.5-23.987-32.401-13.813-12.598-29.838-18.34-46.552-21.896-11.556-2.464-23.23-3.397-34.951-3.629v12.747c9.581.366 19.1 1.454 28.502 3.752 15.253 3.727 29.55 9.825 40.618 23.938z"/><path d="M88.025 543.393c24.064 7.89 48.24 6.6 72.468 1.387 21.888-4.708 43.75-9.653 66.055-10.444 41.56-1.476 83.109-3.213 124.606-6.287 16.586-1.233 33.218-1.804 49.624 1.527 32.07 6.518 64.393 8.224 96.814 9.134 32.673.915 65.345 1.521 97.843-3.351 36.108-5.413 72.149-5.629 108.226-.155 25.498 3.866 51.09 4.966 76.711 2.462 24.15-2.359 48.199-1.017 72.226 1.743 24.722 2.837 49.367 3.11 74.032-1.265 35.156-6.245 70.364-5.453 105.567-.303 31.495 4.611 62.964 6.112 94.706 2.426 33.866-3.932 66.78-11.873 98.594-26.528 12.075-5.562 22.13-14.064 29.941-26.472a4021.783 4021.783 0 0122.032-34.563c7.648-11.874 16.036-22.9 25.787-32.342 31.114-30.137 66.456-32.275 99.843-6.07 10.152 7.967 19.209 17.517 27.854 27.674 3.024 3.552 6.037 7.13 9.046 10.707v-14.49c-.967-1.14-1.939-2.282-2.9-3.423-9.078-10.707-18.53-20.859-29.155-29.33-29.51-23.542-60.13-25.506-91.842-6.898-13.926 8.173-25.842 19.764-37.388 31.941-21.22 22.37-43.75 42.602-67.449 60.978-17.727 13.74-36.704 23.974-57.548 28.26-38.196 7.86-76.536 10.888-115.139 4.175-35.609-6.2-71.305-7.957-106.94-.473-27.376 5.746-54.705 5.705-82.152 1.172-21.58-3.562-43.236-5.038-64.996-2.37-25.755 3.151-51.418 1.743-77.034-2.349-31.855-5.089-63.772-7.155-95.781-2.097-39.09 6.168-78.377 6.697-117.71 6.291-28.47-.287-56.674-2.554-84.353-11.488-17.398-5.618-35.203-6.302-53.105-3.773-23.698 3.341-47.304 7.582-71.126 9.69-17.419 1.541-34.853 2.451-52.297 3.284-25.216 1.203-49.809 7.479-74.52 12.871-23.277 5.084-46.435 5.767-69.295-3.192-19.744-7.736-36.443-21.414-51.748-37.904-7.02-7.55-13.803-15.451-21.343-22.267-5.014-4.534-10.116-8.944-16.179-11.308v22.822c13.16 8.908 24.758 20.54 37.085 30.892 15.676 13.154 32.41 23.63 50.94 29.706z"/></g></svg>
